<?xml version="1.0" encoding="UTF-8"?><svg xmlns="http://www.w3.org/2000/svg" xmlns:xlink="http://www.w3.org/1999/xlink" viewBox="0 0 1500 2400"><defs><style>.c{fill:#241929;}.c,.d,.e,.f,.g,.h,.i,.j,.k,.l,.m,.n,.o,.p,.q,.r,.s,.t{stroke-width:0px;}.d{fill:#f5ede2;}.e{fill:#df6969;}.f{fill:#262933;}.u{stroke-width:6.919px;}.u,.v,.w,.x{stroke-linecap:round;stroke-linejoin:round;}.u,.v,.x{stroke:#262933;}.u,.h{fill:#ffa485;}.v,.j{fill:#fff;}.v,.w{stroke-width:10px;}.g{fill:#3e3755;}.y{isolation:isolate;}.z{clip-path:url(#b);}.w{stroke:#3d3754;}.w,.k{fill:#3d3754;}.l,.aa{fill:#474963;}.m{fill:#eb4646;}.n{fill:#ffb53e;}.o{fill:#2d3248;}.p{fill:#e59078;}.q{fill:#fdfdfd;}.ab{mix-blend-mode:multiply;}.x{fill:none;stroke-width:7px;}.r{fill:#e06a4b;opacity:.36;}.s{fill:#ef9a33;}.t{fill:#111;}</style><clipPath id="b"><path class="l" d="M1199.08,1320.521c27.866,116.886,53.485,224.336-2.842,315.465-106.605,172.472-450.934,191.063-677.149,50.853-45.356-28.112-234.841-154.765-248.138-366.318-18.245-290.284,305.607-575.16,563.962-522.273,251.95,51.576,335.656,402.683,364.166,522.273Z"/></clipPath></defs><g class="y"><g id="a"><rect class="d" width="1500" height="2400"/><path class="g" d="M1202.768,638.495c-3.33-15.32-10.29-28.73-20.47-39.71-5.04-5.45-10.88-10.3-17.45-14.48,1.06-.12,2.12-.24,3.18-.37,4.08-.47,8.16-.95,12.23-1.43,4.13-.49,7.97-2.17,11.04-4.79,1-.84,1.92-1.79,2.74-2.82,3.35-4.22,4.81-9.61,4.08-14.91,0-.01,0-.03-.01-.04-1.41-10.39-2.83-20.76-4.25-31.14-.88-6.43-4.69-11.62-9.89-14.48-1.4-.78-2.9-1.38-4.47-1.79-2.65-.69-5.5-.85-8.41-.37-35.03,5.71-70.3,10.71-105.75,14.99-.07.02-.14.02-.21.03-246.23,29.74-501.32,25.12-744.8-13.86-2.42-.38-4.84-.77-7.25-1.16-4.75-.78-9.56.12-13.57,2.55-.48.29-.95.6-1.4.93-4.27,3.12-7.08,7.86-7.8,13.17-1.42,10.39-2.83,20.79-4.24,31.18-1.52,11.07,6.47,21.18,17.86,22.51.37.04.73.09,1.1.13,2.59,8.6,5.21,17.14,7.87,25.63,1.4,4.48,4.4,8.16,8.31,10.57,2.18,1.36,4.65,2.32,7.28,2.81-5.88,3.97-11.03,8.81-15.22,14.32-5.77,7.58-9.74,16.42-11.33,25.98-2.3,13.81,1,28.91,9.23,41.13,9.08,13.51,22.89,21.99,38.78,24.16,2.7.44,5.41.77,8.1.97-2.38,5.3-3.66,10.69-3.67,15.9-.01,2.68.39,5.36,1.2,7.97,3.95,12.84,12.51,23.58,24.79,31,11.6,7.01,25.7,10.63,40.64,10.63,18.64-.01,37.05-5.75,51.63-15.95,2.76-1.93,5.36-3.92,7.8-5.95,11.82,5.4,18.65,10.19,19.21,10.59,3.86,2.93,8.85,4.43,14.03,4.44,2.76,0,5.58-.41,8.32-1.26,6.25-1.93,12.49-3.86,18.72-5.77,6.42-1.97,11.47-6.16,13.69-11.36,1.46-3.41,1.61-7,.51-10.34-.56-1.75-1.48-3.44-2.73-4.99-.34-.43-3.44-4.24-8.8-9.88-8.28-8.71-21.96-21.8-39.17-33.57.07-.96.13-1.93.2-2.89.57-8.36,1.16-16.71,1.73-25.07,2.33,4.36,4.67,8.71,7.02,13.05,2.78,5.13,8.36,8.79,15.03,9.89,2.38.4,4.74.84,7.1,1.33,54.94,11.27,103.8,44.85,104.43,45.18,4.02,2.77,9.02,4.16,14.05,4.18,5.53.03,11.1-1.6,15.4-4.85,2.35-1.78,4.7-3.56,7.04-5.33,3.45-2.61,5.71-6.01,6.52-9.67,12.05,5.89,24.16,11.73,36.33,17.56,3.51,1.68,7.42,2.5,11.3,2.5,6.21,0,12.34-2.08,16.63-6.02,1.94-1.78,3.87-3.56,5.8-5.35,3.41-3.14,5.27-7.15,5.26-11.29,0-1.44,0-2.89-.01-4.33-.02-18.19-.05-36.36-.08-54.54,3.34,5.18,6.69,10.36,10.05,15.53,1.85,2.85,3.7,5.7,5.56,8.54,2.52,3.86,6.75,6.79,11.77,8.26,1.19.34,2.43.61,3.7.79-1.72,1.35-3.32,2.78-4.77,4.29-4.58,4.74-7.78,10.23-9.27,16.12-2.83,11.09.64,22.84,9.67,32.26,8.52,8.89,21.18,15.1,35.59,17.46,4.2.69,8.48,1.04,12.72,1.03,12.25-.02,24.17-3.06,33.51-8.57,10.13-5.99,16.86-14.64,19-24.35.22-1,.38-2.01.49-3.02.09-.69.14-1.38.18-2.07.4.21.79.42,1.18.63,10.46,5.59,16.77,9.64,17,9.8,4.23,2.74,9.34,4.08,14.36,4.04,5.54-.05,10.97-1.78,15.02-5.16,2.21-1.85,4.42-3.7,6.62-5.56,4.05-3.4,6.16-8.05,5.88-12.87-.07-1.17-.14-2.33-.21-3.5-1.07-18.24-2.15-36.49-3.22-54.73,4.06,5.85,8.12,11.72,12.21,17.6,1.07,1.53,2.13,3.06,3.2,4.59,3.43,4.93,9.46,8.29,16.25,9.04,58.76,6.18,116.56,43.27,117.3,43.88,4.38,2.88,9.56,4.26,14.58,4.17,5.52-.1,10.84-2,14.68-5.65,2.1-2,4.19-4,6.28-6.02,3.83-3.69,5.66-8.7,5.08-13.86-.05-.43-.09-.85-.14-1.28-.79-7.06-1.58-14.13-2.36-21.19,4.1.87,8.25,1.38,12.4,1.53,1.91.07,3.82.06,5.72-.02,22.71-.95,42.41-13.07,51.13-32.04.19-.42.37-.83.55-1.23,1.14-2.59,2.05-5.26,2.76-8,2.12-8.31,2.23-17.17.33-25.96ZM873.948,721.945c-2.54,11.24-15.85,18.85-31.42,18.9-2.65.01-5.37-.2-8.1-.64-18.81-3.07-31.32-16.12-28.06-29.16,2.23-8.93,11.17-15.56,22.53-17.91,2.81-.59,5.77-.91,8.81-.94,2.62-.02,5.3.17,8,.6,11.95,1.89,21.47,7.99,25.93,15.62,2.45,4.19,3.37,8.85,2.31,13.53ZM424.678,594.825c.43.04.86.08,1.28.11-.06.67-.12,1.33-.19,1.99-.35-.7-.72-1.4-1.09-2.1ZM511.698,601.205c4.81.3,9.64.58,14.46.86-5.56,1.76-10.55,3.43-14.86,4.94.13-1.94.26-3.87.4-5.8ZM757.878,616.765c-.01-2.85-.01-5.69-.02-8.54,7.24-.03,14.47-.08,21.71-.15-8.87,3.36-16.25,6.38-21.69,8.69ZM939.178,611.395c-.16-2.75-.32-5.51-.48-8.27,6.82-.35,13.64-.73,20.46-1.12-8.03,3.61-14.8,6.85-19.98,9.39Z"/><path class="g" d="M434.04,293.057c1.432.362,2.867.714,4.301,1.071-13.23,10.712-20.47,25.678-20.594,44.119-.078,17.86,6.688,34.295,19.82,47.019,9.408,9.134,21.75,15.835,35.038,19.15-7.245,1.252-15.079,2.419-23.572,3.5-6.032.765-11.081,4.268-13.632,9.49-2.549,5.219-2.291,11.535.743,16.976,10.476,18.783,21.198,37.168,32.151,55.206,3.38,5.573,9.441,9.203,16.004,9.928,1.889.209,3.819.179,5.737-.113,52.215-7.992,92.902-31.001,117.507-48.696,5.578,21.8,14.697,51.866,28.585,82.31,2.297,5.039,7.175,8.937,13.232,10.549,1.77.471,3.583.733,5.39.791,4.378.14,8.725-.913,12.365-3.066,4.92-2.909,9.827-5.827,14.722-8.755,6.368-3.809,9.545-10.386,8.237-16.938-.044-.171-3.866-20.252-2.472-48.276,1.02-21.209,5.344-50.697,18.348-79.572-.182,15.722-.365,31.444-.547,47.166-.066,5.546,2.917,10.826,8.051,14.176,20.665,13.486,41.596,26.585,62.777,39.416,3.608,2.185,7.82,3.21,11.996,3.121,5.263-.112,10.466-1.993,14.331-5.52,28.446-25.954,50.55-43.246,66.593-54.361.094,9.372,1.187,19.18,3.314,29.279,5.24,24.898,16.274,49.192,32.195,70.314,3.054,4.053,7.967,6.79,13.56,7.532,1.545.206,3.103.253,4.645.15,4.04-.272,7.97-1.58,11.26-3.817,4.583-3.113,9.151-6.249,13.704-9.411,5.998-4.162,8.998-10.847,7.859-17.344-4.701-26.894-2.914-53.158,4.837-78.608,5.664-18.577,12.61-30.01,13.08-30.764,4.884-7.438,3.839-16.481-2.276-22.055-20.858-19.034-41.349-37.978-61.482-57.007,18.129-2.419,36.202-5.233,54.2-8.441,5.042-.898,9.728-3.712,13.008-7.819,3.281-4.105,4.885-9.16,4.482-14.001-1.135-13.678-2.27-27.356-3.404-41.032-.844-10.042-9.695-16.229-19.841-14.061-84.76,17.998-171.552,25.27-257.955,21.816-1.538-23.975-13.336-46.5-32.726-63.386-15.523-13.509-34.009-22.086-53.696-25.06-7.338-1.103-14.725-1.37-21.978-.776-9.415.786-19.354,1.715-28.97,2.475-27.006,2.221-57.676,3.317-75.362-1.865-4.307-1.249-6.281-2.431-6.912-2.858-1.944-2.768-3.429-6.87-4.314-11.932-.003-.017-.005-.034-.009-.049-.195-1.098-.389-2.196-.582-3.295-1.11-6.29-4.892-12.225-10.118-15.995-1.774-1.279-3.641-2.251-5.526-2.904-3.671-1.267-7.414-1.324-10.691-.031-5.059,1.996-10.129,3.98-15.208,5.951-5.828,2.256-9.305,8.469-8.935,16.028.023.463.046.926.069,1.389.939,18.651,3.944,34.521,9.258,48.378,1.32,3.442,2.784,6.747,4.391,9.916-3.802-.514-7.468.246-10.472,2.241-3.764,2.498-6.181,6.746-6.703,11.797-1.471,14.268-2.941,28.534-4.41,42.799-1.09,10.473,6.308,21.174,16.597,23.752ZM615.981,244.483c-1.837,1.51-3.824,3.008-5.918,4.456-3.047-.388-6.092-.791-9.135-1.206,5.145-1.175,10.25-2.306,15.053-3.25ZM615.194,326.394c-2.13.562-4.109,1.462-5.85,2.677-4.69,3.268-9.021,6.407-13.012,9.392-3.654-5.848-8.138-11.694-13.244-17.313,12.145,1.534,24.313,2.895,36.501,4.076-1.465.389-2.929.783-4.396,1.169ZM685.043,329.855c7.188.322,14.378.591,21.57.792-.063,5.44-.126,10.881-.189,16.322-7.168-5.636-14.295-11.339-21.381-17.113ZM804.366,329.617c21.622-1.059,43.215-2.671,64.749-4.835-26.823,11.366-48.464,22.546-64.434,31.8-.104-8.988-.209-17.976-.315-26.965Z"/><path class="j" d="M1191.988,621.795c-10.32-48.21-61.99-55.7-86.52-58.46-.38-3.58-.76-7.17-1.14-10.75,27.89-2.93,55.68-6.21,83.36-9.85-1.35-10.27-2.69-20.54-4.03-30.81-282.84,42.56-580.31,42.56-863.15,0-1.34,10.27-2.67,20.54-4.01,30.81,4.86.64,9.73,1.27,14.6,1.89,3.88,12.74,7.84,25.37,11.87,37.88,4.45-.3,8.66-.21,12.61.17,22.97,2.31,37.28,14.72,37.87,23.51.05.68.05,1.39.03,2.1-.51-.05-1.02-.1-1.53-.14-5.97-.46-12.62-.17-20.24,1.02-19.06,2.94-35.61,16.16-38.64,34.93-3.09,18.98,10.44,41.42,31.82,44.29,3.22.57,6.33.9,9.33,1.02,26.47.97,43.36-14.3,46.51-28.13,8.79,1.85,21.17,11.76,32.82,22.47-1.88-.21-3.75-.35-5.6-.41-33.37-1.32-61.62,21.68-61.64,39.5,0,1.07.19,2.12.51,3.14,5.86,18.64,25.08,29.11,45.86,29.23,12.42.09,25.36-3.47,36.22-11.07,6.09-4.25,11.88-9.27,16.41-14.98,25.25,9,39.67,19.69,39.67,19.71,6.23-1.91,12.44-3.81,18.64-5.7,0-.01-21.06-26.23-51.74-44.69,3.43-45.59,6.85-91.17,10.27-136.75,43.39,3.2,86.93,5.56,130.55,7.09-.11,3.33-.23,6.67-.35,10-63.32,7.8-119.82,31.16-119.9,31.29,9.92,19.23,20.04,38.21,30.37,56.99,64.21,11.08,121.26,50.82,121.4,50.81,2.35-1.78,4.69-3.55,7.04-5.32,1.11-47.52,2.22-95.04,3.34-142.56,9.56.22,19.12.39,28.69.53-.63,42.9-1.26,85.81-1.89,128.71,12.94,6.35,25.95,12.65,39.04,18.92,1.94-1.78,3.87-3.56,5.81-5.34.22-47.31.45-94.63.66-141.95,46.06.07,92.12-.79,138.08-2.58.13,3.34.27,6.68.4,10.02-62.54,12.44-117.37,38.06-117.43,38.1,11.38,17.87,22.95,35.71,34.69,53.57,9.33,1.17,18.57,2.96,27.53,5.19,2.34-.27,4.71-.41,7.1-.44,4.13-.05,8.31.26,12.42.9,14.08,2.21,26.57,8.28,35.21,17.17.84.86,1.64,1.75,2.39,2.65,24.42,11.13,40.43,21.5,40.51,21.58,2.21-1.85,4.42-3.7,6.63-5.55-2.55-48.36-5.09-96.72-7.63-145.08,45.53-2.34,90.94-5.59,136.12-9.76.33,3.53.66,7.06.99,10.59-61.37,16.27-114.61,44.91-114.71,44.91,12.34,17.91,24.86,35.94,37.58,54.14,65.3,6.49,127.41,46.76,127.59,47.05,2.1-2,4.19-4,6.28-6.01-3.81-36.18-7.63-72.37-11.44-108.55,2.37-.44,4.79-.75,7.22-.96,24.47-2.1,51.23,7.36,55.05,20.9-6.26-5.04-14.57-7.77-23.35-7.04-.07,0-.14.01-.2.01-18.25,1.67-30.45,17.4-26.87,33.69,2.47,11.19,10.49,17.53,22.3,20.06,4.17.89,8.33,1.21,12.38.99,14.65-.76,27.68-8.59,33.64-21.3.15-.31.29-.61.42-.92,3.13-6.98,3.79-14.82,2.18-22.43ZM450.918,643.255c.79,1.3,1.58,2.6,2.37,3.9-.09.94-.17,1.89-.25,2.83-9.82-10.22-17.82-19.37-26.13-26.5-.35-8.74-2-19.06-6.31-30.17-7.26-18.72-19.1-32.41-29.08-41.62,22.24,2.39,44.54,4.56,66.89,6.51-2.5,28.35-4.99,56.7-7.49,85.05ZM635.568,675.595c-.03,0-26.46-26.44-60.5-38.69.02-.04,24.38-15.78,60.23-20.7-.63,18.12-1.26,36.25-1.89,54.38.74.97,1.48,1.95,2.23,2.93-.03.69-.05,1.39-.07,2.08ZM832.608,639.215c.02-.02,23.18-16.63,58.57-23.64.75,18.2,1.5,36.4,2.25,54.6.82.95,1.63,1.9,2.45,2.86.03.7.06,1.4.09,2.1-.04-.04-28.42-25.61-63.36-35.92ZM1014.918,633.385c.01,0,22.15-18.14,56.94-26.94l5.46,57.75c.87.99,1.73,1.98,2.6,2.97.07.74.14,1.48.21,2.22-.04-.07-29.82-26.46-65.21-36Z"/><path class="i" d="M426.218,674.475c-.48.75-.99,1.48-1.53,2.21,1.18-.3,2.38-.58,3.57-.82-.72-.51-1.4-.97-2.04-1.39ZM452.058,718.795c-2.43-1.93-5.48-2.84-8.64-2.91-7.54-.17-15.72,4.44-17.45,11.09-.49,1.88,0,4.02,1.78,5.09.86.52,1.89.73,2.96.75,1.19.02,2.43-.19,3.58-.49,3.61-.93,6.99-2.57,9.8-4.73.65-.5,1.26-1.02,1.85-1.57.79-.74,6.94-6.57,6.12-7.23ZM452.058,718.795c-2.43-1.93-5.48-2.84-8.64-2.91-7.54-.17-15.72,4.44-17.45,11.09-.49,1.88,0,4.02,1.78,5.09.86.52,1.89.73,2.96.75,1.19.02,2.43-.19,3.58-.49,3.61-.93,6.99-2.57,9.8-4.73.65-.5,1.26-1.02,1.85-1.57.79-.74,6.94-6.57,6.12-7.23ZM452.058,718.795c-2.43-1.93-5.48-2.84-8.64-2.91-7.54-.17-15.72,4.44-17.45,11.09-.49,1.88,0,4.02,1.78,5.09.86.52,1.89.73,2.96.75,1.19.02,2.43-.19,3.58-.49,3.61-.93,6.99-2.57,9.8-4.73.65-.5,1.26-1.02,1.85-1.57.79-.74,6.94-6.57,6.12-7.23ZM452.058,718.795c-2.43-1.93-5.48-2.84-8.64-2.91-7.54-.17-15.72,4.44-17.45,11.09-.49,1.88,0,4.02,1.78,5.09.86.52,1.89.73,2.96.75,1.19.02,2.43-.19,3.58-.49,3.61-.93,6.99-2.57,9.8-4.73.65-.5,1.26-1.02,1.85-1.57.79-.74,6.94-6.57,6.12-7.23Z"/><path class="i" d="M1212.768,618.495c-3.44-15.82-10.75-29.6-21.47-40.78-4.81-5.01-10.31-9.5-16.45-13.41,5.14-.59,10.28-1.19,15.41-1.8,2.8-.33,5.47-1.21,7.85-2.56,2.28-1.29,4.29-2.99,5.93-5.05,3.35-4.22,4.81-9.61,4.08-14.91-1.42-10.4-2.84-20.79-4.26-31.18-1.52-11.07-11.7-18.47-22.77-16.64-74.8,12.19-150.71,21.14-227.14,26.83-18.48,1.38-36.98,2.57-55.51,3.56-69.82,3.76-139.95,4.83-209.95,3.19-18.81-.43-37.62-1.06-56.4-1.9-104.07-4.58-207.57-15.15-309.01-31.68-5.32-.87-10.7.36-14.97,3.48-4.27,3.12-7.08,7.86-7.8,13.17-.27,1.97-.54,3.93-.8,5.9-1.15,8.43-2.3,16.86-3.44,25.28-1.52,11.07,6.47,21.18,17.86,22.51.37.04.73.09,1.1.13,2.59,8.6,5.21,17.14,7.87,25.63,2.18,6.99,8.26,12.01,15.59,13.38-6.88,4.65-12.76,10.49-17.28,17.19-3.53,5.23-6.24,11-7.94,17.13-.55,1.96-.99,3.95-1.33,5.98-2.3,13.81,1,28.91,9.23,41.13,9.08,13.51,22.89,21.99,38.78,24.16,2.7.44,5.41.77,8.1.97-2.38,5.3-3.66,10.69-3.67,15.9-.01,2.68.39,5.36,1.2,7.97,3.95,12.84,12.51,23.58,24.79,31,11.6,7.01,25.7,10.63,40.64,10.63,18.64-.01,37.05-5.75,51.63-15.95,2.76-1.93,5.36-3.92,7.8-5.95,11.82,5.4,18.65,10.19,19.21,10.59,3.86,2.93,8.85,4.43,14.03,4.44,2.76,0,5.58-.41,8.32-1.26,6.25-1.93,12.49-3.86,18.72-5.77,1.48-.45,2.89-1.02,4.2-1.7,4.4-2.25,7.78-5.66,9.49-9.66,2.23-5.2,1.4-10.84-2.22-15.33-.62-.79-10.64-13.06-26.89-27.14-6.18-5.35-13.26-10.96-21.08-16.31.64-9.32,1.29-18.64,1.93-27.96,2.33,4.36,4.67,8.71,7.02,13.05,2.78,5.13,8.36,8.79,15.03,9.89,57.76,9.66,110.87,46.17,111.53,46.51,4.02,2.77,9.02,4.16,14.05,4.18,5.53.03,11.1-1.6,15.4-4.85,2.35-1.78,4.7-3.56,7.04-5.33,3.45-2.61,5.71-6.01,6.52-9.67,12.05,5.89,24.16,11.73,36.33,17.56,3.51,1.68,7.42,2.5,11.3,2.5,6.21,0,12.34-2.08,16.63-6.02.35-.32.7-.64,1.05-.97,1.59-1.45,3.17-2.91,4.75-4.38,3.41-3.14,5.27-7.15,5.26-11.29-.01-7.78-.02-15.56-.04-23.34-.01-11.85-.03-23.69-.05-35.53,5.17,8.02,10.37,16.05,15.61,24.07,3.12,4.78,8.85,8.13,15.47,9.04-6.78,5.29-11.56,11.93-13.7,19.22-.13.4-.24.8-.34,1.2-.33,1.29-.57,2.58-.73,3.88-1.22,9.91,2.42,20.05,10.4,28.38,8.52,8.89,21.18,15.1,35.59,17.46,4.2.69,8.48,1.04,12.72,1.03,12.25-.02,24.17-3.06,33.51-8.57,3.61-2.14,6.8-4.62,9.49-7.37.48-.47.93-.95,1.36-1.44,4.11-4.61,6.91-9.9,8.15-15.54.37-1.68.6-3.38.68-5.08,11.16,5.91,17.93,10.25,18.17,10.42,4.23,2.74,9.34,4.08,14.36,4.04,5.54-.05,10.97-1.78,15.02-5.16.76-.64,1.53-1.28,2.29-1.93,1.45-1.2,2.89-2.41,4.33-3.63,4.05-3.4,6.16-8.05,5.88-12.87-.4-6.88-.81-13.75-1.22-20.63-.73-12.53-1.47-25.07-2.21-37.6,5.11,7.37,10.24,14.77,15.41,22.19,3.43,4.93,9.46,8.29,16.25,9.04,58.76,6.18,116.56,43.27,117.3,43.88,4.38,2.88,9.56,4.26,14.58,4.17,5.52-.1,10.84-2,14.68-5.65.41-.39.82-.78,1.22-1.16,1.69-1.62,3.38-3.23,5.06-4.86,3.83-3.69,5.66-8.7,5.08-13.86-.03-.31-.07-.63-.1-.94-.8-7.18-1.6-14.35-2.4-21.53,5.98,1.26,12.08,1.77,18.12,1.51,18.05-.76,34.2-8.57,44.44-21.27,2.65-3.27,4.9-6.88,6.69-10.77.19-.42.37-.83.55-1.23,4.59-10.47,5.62-22.28,3.09-33.96ZM521.298,587.005c.13-1.94.26-3.87.4-5.8,4.81.3,9.64.58,14.46.86-5.56,1.76-10.55,3.43-14.86,4.94ZM767.858,588.225c7.24-.03,14.47-.08,21.71-.15-8.87,3.36-16.25,6.38-21.69,8.69-.01-2.85-.01-5.69-.02-8.54ZM873.948,721.945c-2.54,11.24-15.85,18.85-31.42,18.9-2.65.01-5.37-.2-8.1-.64-18.81-3.07-31.32-16.12-28.06-29.16,2.23-8.93,11.17-15.56,22.53-17.91,2.81-.59,5.77-.91,8.81-.94,2.62-.02,5.3.17,8,.6,11.95,1.89,21.47,7.99,25.93,15.62,2.45,4.19,3.37,8.85,2.31,13.53ZM948.698,583.125c6.82-.35,13.64-.73,20.46-1.12-8.03,3.61-14.8,6.85-19.98,9.39-.16-2.75-.32-5.51-.48-8.27ZM1189.809,644.225c-.13.31-.27.61-.42.92-5.96,12.71-18.99,20.54-33.64,21.3-4.05.22-8.21-.1-12.38-.99-11.81-2.53-19.83-8.87-22.3-20.06-3.58-16.29,8.62-32.02,26.87-33.69.06,0,.13-.01.2-.01,8.78-.73,17.09,2,23.35,7.04-3.82-13.54-30.58-23-55.05-20.9-2.43.21-4.85.52-7.22.96,3.81,36.18,7.63,72.37,11.44,108.55-2.09,2.01-4.18,4.01-6.28,6.01-.18-.29-62.29-40.56-127.59-47.05-12.72-18.2-25.24-36.23-37.58-54.14.1,0,53.34-28.64,114.71-44.91-.33-3.53-.66-7.06-.99-10.59-45.18,4.17-90.59,7.42-136.12,9.76,2.54,48.36,5.08,96.72,7.63,145.08-2.21,1.85-4.42,3.7-6.63,5.55-.08-.08-16.09-10.45-40.51-21.58-.75-.9-1.55-1.79-2.39-2.65-8.64-8.89-21.13-14.96-35.21-17.17-4.11-.64-8.29-.95-12.42-.9-2.39.03-4.76.17-7.1.44-8.96-2.23-18.2-4.02-27.53-5.19-11.74-17.86-23.31-35.7-34.69-53.57.06-.04,54.89-25.66,117.43-38.1-.13-3.34-.27-6.68-.4-10.02-45.96,1.79-92.02,2.65-138.08,2.58-.21,47.32-.44,94.64-.66,141.95-1.94,1.78-3.87,3.56-5.81,5.34-13.09-6.27-26.1-12.57-39.04-18.92.63-42.9,1.26-85.81,1.89-128.71-9.57-.14-19.13-.31-28.69-.53-1.12,47.52-2.23,95.04-3.34,142.56-2.35,1.77-4.69,3.54-7.04,5.32-.14.01-57.19-39.73-121.4-50.81-10.33-18.78-20.45-37.76-30.37-56.99.08-.13,56.58-23.49,119.9-31.29.12-3.33.24-6.67.35-10-43.62-1.53-87.16-3.89-130.55-7.09-3.42,45.58-6.84,91.16-10.27,136.75,4.39,2.64,8.58,5.44,12.54,8.3,23.73,17.13,39.2,36.38,39.2,36.39-.08.02-.15.05-.23.07-6.12,1.87-12.26,3.74-18.41,5.63,0-.02-14.42-10.71-39.67-19.71-4.53,5.71-10.32,10.73-16.41,14.98-10.86,7.6-23.8,11.16-36.22,11.07-20.78-.12-40-10.59-45.86-29.23-.32-1.02-.51-2.07-.51-3.14.02-17.82,28.27-40.82,61.64-39.5,1.85.06,3.72.2,5.6.41-11.65-10.71-24.03-20.62-32.82-22.47-3.15,13.83-20.04,29.1-46.51,28.13-3-.12-6.11-.45-9.33-1.02-21.38-2.87-34.91-25.31-31.82-44.29,3.03-18.77,19.58-31.99,38.64-34.93,7.62-1.19,14.27-1.48,20.24-1.02.51.04,1.02.09,1.53.14.02-.71.02-1.42-.03-2.1-.59-8.79-14.9-21.2-37.87-23.51-3.95-.38-8.16-.47-12.61-.17-4.03-12.51-7.99-25.14-11.87-37.88-4.87-.62-9.74-1.25-14.6-1.89,1.28-9.8,2.55-19.61,3.83-29.41.06-.47.12-.93.18-1.4,106.6,16.04,215.28,26.04,324.47,29.98,6.55.24,13.09.46,19.64.64,85.23,2.53,170.71,1.36,255.69-3.49,1.56-.08,3.12-.17,4.68-.27,46.91-2.74,93.66-6.61,140.14-11.6.07-.01.14-.01.21-.03,38.27-4.1,76.34-8.98,114.16-14.62,1.39-.19,2.77-.4,4.16-.61.1.8.21,1.6.31,2.4,1.24,9.47,2.48,18.94,3.72,28.41-27.68,3.64-55.47,6.92-83.36,9.85.38,3.58.76,7.17,1.14,10.75,15.72,1.77,42.58,5.48,62.56,20.6,5.37,4.06,10.25,8.95,14.27,14.85,4.38,6.4,7.76,13.99,9.69,23.01,1.61,7.61.95,15.45-2.18,22.43ZM424.688,676.685c.54-.73,1.05-1.46,1.53-2.21.64.42,1.32.88,2.04,1.39-1.19.24-2.39.52-3.57.82Z"/><path class="j" d="M873.948,721.945c-2.54,11.24-15.85,18.85-31.42,18.9-2.65.01-5.37-.2-8.1-.64-18.81-3.07-31.32-16.12-28.06-29.16,2.23-8.93,11.17-15.56,22.53-17.91,2.81-.59,5.77-.91,8.81-.94,2.62-.02,5.3.17,8,.6,11.95,1.89,21.47,7.99,25.93,15.62,2.45,4.19,3.37,8.85,2.31,13.53Z"/><path class="i" d="M1080.128,669.385c-.04-.07-29.82-26.46-65.21-36,.01,0,22.15-18.14,56.94-26.94l5.46,57.75c.87.99,1.73,1.98,2.6,2.97.07.74.14,1.48.21,2.22Z"/><path class="i" d="M895.968,675.135c-.04-.04-28.42-25.61-63.36-35.92.02-.02,23.18-16.63,58.57-23.64.75,18.2,1.5,36.4,2.25,54.6.82.95,1.63,1.9,2.45,2.86.03.7.06,1.4.09,2.1Z"/><path class="i" d="M458.408,558.205c-22.35-1.95-44.65-4.12-66.89-6.51,9.98,9.21,21.82,22.9,29.08,41.62,4.31,11.11,5.96,21.43,6.31,30.17,8.31,7.13,16.31,16.28,26.13,26.5.08-.94.16-1.89.25-2.83-.79-1.3-1.58-2.6-2.37-3.9,2.5-28.35,4.99-56.7,7.49-85.05ZM435.768,576.925c-.35-.7-.72-1.4-1.09-2.1.43.04.86.08,1.28.11-.06.67-.12,1.33-.19,1.99Z"/><path class="i" d="M635.638,673.515c-.03.69-.05,1.39-.07,2.08-.03,0-26.46-26.44-60.5-38.69.02-.04,24.38-15.78,60.23-20.7-.63,18.12-1.26,36.25-1.89,54.38.74.97,1.48,1.95,2.23,2.93Z"/><path class="j" d="M905.438,312.945c-70.78,27.09-110.02,57.16-110.02,57.57-.13-25.83-.27-51.66-.41-77.49,59.63-2.11,119.09-8.62,177.72-19.54-1.04-13.58-2.08-27.15-3.12-40.73-91.73,18.72-185.72,25.45-279.08,20.18.22-1.17.41-2.38.58-3.61,3.09-23.67-6.66-47.09-25.48-63.71-12.33-10.87-27.15-17.72-42.49-19.96-5.77-.83-11.61-1.01-17.42-.48-9.05.84-18.61,1.83-28.72,2.73-28.88,2.66-60.63,4.11-81-1.62-7.83-2.19-13.97-5.4-17.63-9.91-4.73-6.06-7.91-13.99-9.49-23.51-.19-1.12-.37-2.23-.56-3.34-5.09,2.07-10.19,4.14-15.3,6.18.03.46.06.92.08,1.38,1.85,31.83,10.63,54.37,26.99,68.28,8.12,6.92,17.57,11.22,27.83,13.63,25.73,6.05,56.38.26,84.09-5.83,21.86-4.78,42.56-9.98,56.47-8.51,2.52.27,4.82.76,6.86,1.51,1.61,3.48,1.61,7.42,0,11.75-4.3,11.61-18.74,23.1-29.18,29.47-59.5-6.91-118.46-18.74-176.12-35.5-1.37,14.13-2.74,28.26-4.1,42.39,9.07,2.4,18.17,4.68,27.29,6.85,4.96-1.6,10.29-2.89,15.97-3.84.51-.09,1.02-.16,1.54-.2,10.1-.83,20.27-.19,30.28,1.83,16.55,3.37,32.94,10.61,47.75,20.9,55.31,8.5,111.24,13.12,167.21,13.86-.21,40.52-.43,81.03-.64,121.55,20.62,13.35,41.51,26.32,62.65,39.02,70.55-64.35,105.91-77.59,106.23-77.28-12.45,33.9-2.21,84.87,27.67,124.28,4.57-3.1,9.13-6.22,13.67-9.38-11.83-71.72,21.74-120.92,21.52-121.23-20.91-19.24-41.45-38.41-61.64-57.69ZM519.628,277.075c-7.4-1.43-15.19-1.97-23.33-1.34,15.25,3.23,30.57,6.18,45.94,8.82-7.06-3.31-14.63-5.9-22.61-7.48ZM726.018,338.325c-.02,3.24-.05,6.47-.08,9.7,1.08-3.19,1.08-6.55.08-9.7Z"/><path class="i" d="M716.268,339.555c-.02,2.27-.05,4.53-.07,6.8,1.09-2.19,1.07-4.64.07-6.8ZM726.018,338.325c-.02,3.24-.05,6.47-.08,9.7,1.08-3.19,1.08-6.55.08-9.7ZM542.238,284.555c-7.06-3.31-14.63-5.9-22.61-7.48-7.4-1.43-15.19-1.97-23.33-1.34-.47.03-.94.07-1.41.11-5.7,1.05-11.95,2.64-17.99,5.04,28.36,6.34,56.94,11.69,85.69,16.04-6.15-4.69-12.97-8.92-20.35-12.37Z"/><path class="j" d="M679.908,498.235c-4.89,2.9-9.78,5.79-14.69,8.67-25.87-55.83-35.35-111.09-35.41-111.04-.02,0-51.47,53.23-134.06,65.42-11.03-17.89-21.82-36.11-32.38-54.72,21.66-2.96,38.8-6.36,52.83-10.1,14.93-5.9,37.89-20.14,39.77-50.96-1.04-11.72-8.42-14.09-13.56-15.65,1.16.93-.8,45.54-53.42,37.27-19.93-3.95-42.14-19.66-42.16-46.47-.01-21.85,14.35-33.54,30.07-39.77,6.04-2.4,12.29-3.99,17.99-5.04.47-.04.94-.08,1.41-.11,8.14-.63,15.93-.09,23.33,1.34,7.98,1.58,15.55,4.17,22.61,7.48,7.38,3.45,14.2,7.68,20.35,12.37,19.22,14.63,31.87,33.61,34.53,46.71.4,2,.69,3.96.9,5.88,9.11-7.69,19.7-16.27,33.66-26.12,12.9-3.47,25.75-7.1,38.56-10.89,12.22,10.29,24.57,20.34,37.04,30.19-42.6,70.98-27.74,155.56-27.37,155.54Z"/><path class="i" d="M987.058,283.755c3.28-4.1,4.88-9.16,4.48-14-1.14-13.67-2.27-27.35-3.41-41.03-.84-10.04-9.69-16.23-19.84-14.06-84.76,18-171.55,25.27-257.95,21.82-1.54-23.98-13.34-46.5-32.73-63.39-15.52-13.51-34.01-22.09-53.69-25.06-7.34-1.1-14.73-1.37-21.98-.78-9.42.79-19.36,1.72-28.97,2.48-27.01,2.22-57.68,3.32-75.36-1.87-4.31-1.24-6.29-2.43-6.92-2.85-1.94-2.77-3.43-6.87-4.31-11.94,0-.01-.01-.03-.01-.05-.19-1.09-.39-2.19-.58-3.29-1.11-6.29-4.89-12.23-10.12-16-1.77-1.28-3.64-2.25-5.52-2.9-3.68-1.27-7.42-1.32-10.7-.03-5.06,2-10.13,3.98-15.2,5.95-5.83,2.26-9.31,8.47-8.94,16.03.02.46.05.92.07,1.39.94,18.65,3.94,34.52,9.26,48.38,1.32,3.44,2.78,6.74,4.39,9.91-3.8-.51-7.47.25-10.47,2.24-3.77,2.5-6.18,6.75-6.71,11.8-1.47,14.27-2.94,28.53-4.41,42.8-1.09,10.47,6.31,21.17,16.6,23.75,1.43.36,2.87.72,4.3,1.07-13.23,10.71-20.47,25.68-20.59,44.12-.08,17.86,6.69,34.3,19.82,47.02,9.41,9.13,21.75,15.84,35.04,19.15-7.25,1.25-15.08,2.42-23.58,3.5-6.03.77-11.08,4.27-13.63,9.49-2.55,5.22-2.29,11.54.75,16.98,10.47,18.78,21.19,37.17,32.15,55.2,3.38,5.58,9.44,9.21,16,9.93,1.89.21,3.82.18,5.74-.11,52.21-7.99,92.9-31,117.5-48.7,5.58,21.8,14.7,51.87,28.59,82.31,2.3,5.04,7.17,8.94,13.23,10.55,1.77.47,3.58.74,5.39.79,4.38.14,8.73-.91,12.37-3.06,4.92-2.91,9.82-5.83,14.72-8.76,6.37-3.81,9.54-10.38,8.24-16.93-.05-.18-3.87-20.26-2.48-48.28,1.02-21.22,5.34-50.71,18.35-79.59-.18,15.73-.36,31.46-.55,47.18-.06,5.55,2.92,10.83,8.06,14.18,20.66,13.49,41.59,26.58,62.77,39.42,3.61,2.18,7.82,3.21,12,3.12,5.26-.12,10.46-2,14.33-5.52,28.45-25.96,50.55-43.25,66.59-54.37.1,9.38,1.19,19.18,3.32,29.28,5.24,24.9,16.27,49.2,32.19,70.32,3.05,4.05,7.97,6.79,13.56,7.53,1.55.21,3.1.25,4.65.15,4.04-.27,7.97-1.58,11.26-3.82,4.58-3.11,9.15-6.25,13.7-9.41,6-4.16,9-10.84,7.86-17.34-4.7-26.9-2.91-53.16,4.84-78.61,5.66-18.58,12.61-30.01,13.08-30.76,4.88-7.44,3.83-16.48-2.28-22.06-20.86-19.03-41.35-37.98-61.48-57.01,18.13-2.42,36.2-5.23,54.2-8.44,5.04-.89,9.73-3.71,13.01-7.82ZM679.908,498.235c-4.89,2.9-9.78,5.79-14.69,8.67-25.87-55.83-35.35-111.09-35.41-111.04-.02,0-51.47,53.23-134.06,65.42-11.03-17.89-21.82-36.11-32.38-54.72,21.66-2.96,38.8-6.36,52.83-10.1,14.93-5.9,37.89-20.14,39.77-50.96-1.04-11.72-8.42-14.09-13.56-15.65,1.16.93-.8,45.54-53.42,37.27-19.93-3.95-42.14-19.66-42.16-46.47-.01-21.85,14.35-33.54,30.07-39.77,6.04-2.4,12.29-3.99,17.99-5.04.47-.04.94-.08,1.41-.11,8.14-.63,15.93-.09,23.33,1.34,7.98,1.58,15.55,4.17,22.61,7.48,7.38,3.45,14.2,7.68,20.35,12.37,19.22,14.63,31.87,33.61,34.53,46.71.4,2,.69,3.96.9,5.88,9.11-7.69,19.7-16.27,33.66-26.12,12.9-3.47,25.75-7.1,38.56-10.89,12.22,10.29,24.57,20.34,37.04,30.19-42.6,70.98-27.74,155.56-27.37,155.54ZM593.108,301.145c12.14,1.55,24.3,2.9,36.48,4.08-1.46.4-2.93.79-4.39,1.17-2.13.56-4.11,1.46-5.85,2.68-4.69,3.26-9.02,6.4-13.02,9.39-3.65-5.85-8.12-11.7-13.22-17.32ZM695.038,309.855c7.19.33,14.38.59,21.57.79-.06,5.44-.13,10.89-.19,16.33-7.17-5.64-14.3-11.34-21.38-17.12ZM716.198,346.355c.02-2.27.05-4.53.07-6.8,1,2.16,1.02,4.61-.07,6.8ZM725.938,348.025c.03-3.23.06-6.46.08-9.7,1,3.15,1,6.51-.08,9.7ZM795.008,293.025c.14,25.83.28,51.66.41,77.49,0-.41,39.24-30.48,110.02-57.57,20.19,19.28,40.73,38.45,61.64,57.69.22.31-33.35,49.51-21.52,121.23-4.54,3.16-9.1,6.28-13.67,9.38-29.88-39.41-40.12-90.38-27.67-124.28-.32-.31-35.68,12.93-106.23,77.28-21.14-12.7-42.03-25.67-62.65-39.02.21-40.52.43-81.03.64-121.55-55.97-.74-111.9-5.36-167.21-13.86-14.81-10.29-31.2-17.53-47.75-20.9-10.01-2.02-20.18-2.66-30.28-1.83-.52.04-1.03.11-1.54.2-5.68.95-11.01,2.24-15.97,3.84-9.12-2.17-18.22-4.45-27.29-6.85,1.36-14.13,2.73-28.26,4.1-42.39,57.66,16.76,116.62,28.59,176.12,35.5,10.44-6.37,24.88-17.86,29.18-29.47,1.61-4.33,1.61-8.27,0-11.75-2.04-.75-4.34-1.24-6.86-1.51-13.91-1.47-34.61,3.73-56.47,8.51-27.71,6.09-58.36,11.88-84.09,5.83-10.26-2.41-19.71-6.71-27.83-13.63-16.36-13.91-25.14-36.45-26.99-68.28-.02-.46-.05-.92-.08-1.38,5.11-2.04,10.21-4.11,15.3-6.18.19,1.11.37,2.22.56,3.34,1.58,9.52,4.76,17.45,9.49,23.51,3.66,4.51,9.8,7.72,17.63,9.91,20.37,5.73,52.12,4.28,81,1.62,10.11-.9,19.67-1.89,28.72-2.73,5.81-.53,11.65-.35,17.42.48,15.34,2.24,30.16,9.09,42.49,19.96,18.82,16.62,28.57,40.04,25.48,63.71-.17,1.23-.36,2.44-.58,3.61,93.36,5.27,187.35-1.46,279.08-20.18,1.04,13.58,2.08,27.15,3.12,40.73-58.63,10.92-118.09,17.43-177.72,19.54ZM879.118,304.785c-26.83,11.36-48.47,22.54-64.44,31.8-.1-8.99-.21-17.98-.31-26.97,21.62-1.06,43.21-2.67,64.75-4.83ZM610.928,227.735c5.14-1.18,10.25-2.31,15.05-3.25-1.83,1.51-3.82,3.01-5.92,4.45-3.04-.38-6.09-.79-9.13-1.2Z"/><path class="j" d="M716.198,346.355c.02-2.27.05-4.53.07-6.8,1,2.16,1.02,4.61-.07,6.8Z"/><path class="i" d="M716.268,339.555c-.02,2.27-.05,4.53-.07,6.8,1.09-2.19,1.07-4.64.07-6.8ZM726.018,338.325c-.02,3.24-.05,6.47-.08,9.7,1.08-3.19,1.08-6.55.08-9.7Z"/><rect class="n" x="1209.203" y="-1434.187" width="3.628" height="1613.344"/><path class="n" d="M1399.211,384.526c-59.699,44.581-144.179,32.32-188.775-27.336-44.522-59.666-32.314-144.161,27.388-188.731,6.469-4.843,13.292-8.99,20.228-12.482-26.531,3.287-52.581,13.278-75.499,30.404-70.466,52.61-84.94,152.372-32.311,222.833,52.623,70.442,152.399,84.896,222.794,32.306,32.292-24.125,52.791-58.128,60.534-94.693-8.739,14.257-20.183,27.12-34.358,37.699Z"/><path class="aa" d="M1199.08,1320.521c27.866,116.886,53.485,224.336-2.842,315.465-106.605,172.472-450.934,191.063-677.149,50.853-45.356-28.112-234.841-154.765-248.138-366.318-18.245-290.284,305.607-575.16,563.962-522.273,251.95,51.576,335.656,402.683,364.166,522.273Z"/><g class="z"><path class="s" d="M995.693,1575.836l82.537-40.411-67.685-122.598,50.175-10.913-98.767-161.074-.03.831c-22.648-31.004-59.251-51.07-100.415-51.07h-170.132l.39-5.143-66.48.724c-61.855,1.177-117.607,41.226-134.702,100.683-.689,2.398-1.318,4.824-1.884,7.277l-38.33,210.826,114.046-9.287-22.322,285.86h461.325l-7.725-205.707h0Z"/><polygon class="t" points="860.282 1245.545 900.483 1782.838 687.561 1781.543 713.98 1251.939 686.261 1222.285 860.282 1245.545"/><path class="t" d="M981,1338.106h78.183c10.513,0,19.048,8.535,19.048,19.048v146.936c0,10.513-8.535,19.048-19.048,19.048h-78.182c-10.513,0-19.048-8.535-19.048-19.048v-146.937c0-10.512,8.535-19.047,19.047-19.047Z"/><path class="p" d="M1003.304,1431.457c-10.684-.192-21.297,2.453-20.698,15.742-1.189,12.074,9.152,15.163,19.955,16.2-6.795.38-12.585,2.766-13.056,10.858-2.527,14.358,10.152,19.516,21.99,20.355-11.386,2.56-4.662,21.006,9.794,25.94,12.852,5.129,26.125,9.755,38.664,15.512,12.616,5.792,25.004,11.395,38.667,14.325,14.794,3.173,30.412,3.423,44.903-.929,9.298-2.793,18.39-7.784,23.63-15.957,9.499-14.815,4.134-35.815-.969-51.305-5.424-16.465-14.073-32.469-26.672-44.557-.004-.004-44.832-43.011-62.623-54.574-1.908-1.24-3.885-2.462-6.097-2.991-2.213-.53-4.733-.266-6.461,1.216-2.247,1.927-2.567,5.265-2.379,8.219.583,9.174,4.385,17.718,8.175,26.156-7.679-2.306-15.877-4.825-24.808-7.696-19.261-4.7-50.071-16.351-54.748,9.203-.867,9.01,5.42,12.725,12.732,14.283Z"/><path class="r" d="M1070.127,1415.666l41.908,16.59s-40.244-29.874-48.083-32.183l6.175,15.594Z"/><path class="e" d="M1028.931,1440.266c-.165,0-.334-.023-.503-.076-10.075-3.124-26.162-7.799-29.19-7.872-.936-.023-1.678-.801-1.654-1.734.023-.936.9-1.618,1.734-1.654,4.473.109,27.502,7.213,30.116,8.024.893.278,1.393,1.228,1.115,2.121-.225.724-.893,1.191-1.618,1.191Z"/><path class="e" d="M1023.783,1471.626c-.156,0-.314-.02-.473-.066l-23.476-6.833c-.9-.262-1.416-1.204-1.155-2.101.265-.897,1.191-1.423,2.101-1.155l23.476,6.833c.9.262,1.416,1.204,1.155,2.101-.219.741-.893,1.221-1.628,1.221Z"/><path class="e" d="M1024.223,1499.707c-.142,0-.291-.02-.437-.056l-12.729-3.401c-.903-.242-1.442-1.171-1.201-2.075.245-.9,1.161-1.429,2.075-1.201l12.729,3.401c.903.242,1.443,1.171,1.201,2.075-.205.758-.887,1.257-1.638,1.257Z"/><path class="h" d="M1051.768,1406.479c-6.201-29.018-40.983-14.678-62.815-8.662-10.1,3.579-19.374,6.731-28.064,9.622,4.042-9.761,8.095-19.643,8.452-30.137.115-3.379-.362-7.18-2.993-9.303-2.022-1.633-4.908-1.85-7.417-1.17-2.508.679-4.724,2.141-6.86,3.621-19.922,13.803-69.656,64.418-69.656,64.418-29.206,35.917-44.149,88.795-26.726,115.244,1.533,2.326,3.865,3.988,6.531,4.794,12.751,3.855,52.483,16.939,71.062,8.324l86.901-37.69c16.338-6.12,23.394-27.406,10.307-29.945,13.486-1.357,27.788-7.673,24.419-23.98-.809-9.224-7.501-11.751-15.271-11.957,12.298-1.549,24-5.424,22.236-19.168.236-15.192-11.97-17.854-24.161-17.275,8.296-2.025,15.348-6.479,14.055-16.736Z"/><path class="r" d="M960.89,1407.44l-47.287,20.353s44.938-35.464,53.811-38.364l-6.524,18.011Z"/><path class="e" d="M1008.695,1433.896c-.705,0-1.36-.44-1.602-1.145-.304-.884.166-1.85,1.052-2.151,2.951-1.012,28.978-9.893,34.04-10.164,1.043-.076,1.737.665,1.784,1.598.05.936-.665,1.734-1.598,1.783-3.891.212-25.232,7.279-33.127,9.986-.182.063-.367.092-.549.092Z"/><path class="e" d="M1015.627,1469.525c-.715,0-1.38-.457-1.611-1.171-.288-.893.199-1.847,1.089-2.134l26.576-8.593c.903-.288,1.847.202,2.134,1.088.288.893-.199,1.847-1.089,2.134l-26.576,8.593c-.175.056-.351.083-.523.083Z"/><path class="e" d="M1016.073,1501.6c-.731,0-1.403-.473-1.625-1.208-.268-.897.242-1.843,1.138-2.111l14.416-4.311c.91-.265,1.84.245,2.111,1.138.268.897-.242,1.843-1.138,2.111l-14.416,4.311c-.162.046-.328.069-.487.069Z"/><path class="s" d="M644.139,1486.073l5.818,16.489,174.239-49.203,20.638-5.828c5.867-1.656,12.042,1.358,14.344,7.003l46.846,114.878c3.106,7.617-.634,16.301-8.302,19.279l-203.119,78.859-79.028,30.682c-23.64,6.544-46.449,8.217-67.396,5.847-65.664-7.43-113.021-54.593-110.255-116.031l14.334-95.676,191.882-6.298Z"/><path class="o" d="M846.07,1522.346c-.708,0-1.37-.447-1.605-1.155l-22.069-65.884c-.298-.89.179-1.85,1.066-2.144.89-.308,1.85.179,2.144,1.065l22.07,65.884c.298.89-.179,1.85-1.066,2.144-.179.063-.36.089-.539.089Z"/><path class="o" d="M573.342,1524.831c-.744,0-1.426-.493-1.634-1.244-.248-.903.285-1.836,1.184-2.084,1.386-.38,138.587-38.074,140.205-38.534.903-.254,1.84.268,2.095,1.168.255.9-.268,1.836-1.168,2.094-1.634.464-134.574,36.986-140.232,38.54-.152.04-.301.06-.45.06Z"/><path class="o" d="M620.876,1511.847h-.069c-.936-.04-1.661-.83-1.625-1.764l5.363-130.328c.04-.933.807-1.625,1.764-1.625.936.04,1.661.83,1.625,1.764l-5.363,130.328c-.04.91-.791,1.625-1.694,1.625Z"/><path class="o" d="M881.288,1596.766c-.682,0-1.324-.414-1.582-1.089-.334-.873.102-1.853.976-2.187l18.003-6.886c2.852-1.089,5.092-3.229,6.313-6.025,1.221-2.799,1.264-5.899.122-8.732l-6.211-15.386c-.351-.87.069-1.856.936-2.207.864-.348,1.853.069,2.207.936l6.211,15.389c1.482,3.683,1.426,7.716-.159,11.352-1.588,3.637-4.503,6.419-8.209,7.835l-18.003,6.886c-.199.076-.404.112-.605.112Z"/><path class="o" d="M568.313,1707.186c-6.806,0-13.615-.473-20.375-1.429-.926-.132-1.571-.989-1.439-1.916.132-.923.983-1.552,1.916-1.439,23.856,3.375,48.37.609,70.89-7.987l87.331-33.352c.87-.331,1.853.103,2.187.976.334.873-.103,1.853-.976,2.187l-87.331,33.352c-16.673,6.366-34.418,9.608-52.202,9.608Z"/><path class="u" d="M777.664,906.393c-.664-1.206-2.099-1.696-3.373-1.173-1.973.81-5.013,1.943-8.214,2.708l-5.826,45.452-23.411-1.874-23.069-1.847c-2.974.55-8.542,2.011-13.738,6.4-6.61,5.583-8.691,12.587-9.549,15.475-5.891,19.823,6.292,47.968,27.634,56.68,5.46,2.229,10.455,2.751,13.802,2.843-1.271,59.794-2.542,119.589-3.813,179.383-11.34.523-17.363,2.292-18.071,5.308-1.202,5.127,12.957,13.855,42.474,26.185l15.548,2.505c35.547,5.727,69.006-18.446,74.733-53.992l8.588-53.303,3.018.242c32.799,2.626,61.516-21.834,64.142-54.633l12.869-133.425c-9.99,3.752-21.763,6.502-35.693,7.743-81.322,7.241-112.117-39.899-118.05-50.673Z"/><path class="t" d="M957.89,881.134l-9.258,1.708c-1.754.324-63.471-46.37-79.817-46.37h0c-1.062,0-2.114.044-3.156.123-.645.049-1.279-.145-1.783-.551-12.263-9.883-27.852-15.805-44.828-15.805h-27.822c-33.416,0-61.046,24.518-66.039,56.533-.151.968-.837,1.744-1.768,2.05-.005.002-.01.003-.015.005-21.073,6.99-32.428,29.935-27.61,51.581.056.252.151.495.278.719l10.2,18.076c.22.39.536.708.922.934,5.524,3.219,12.61,8.279,19.165,16.032,13.107,15.501,16.361,32.622,17.277,41.44.134,1.286,1.212,2.261,2.505,2.261h1.009c1.524,0,2.701-1.335,2.496-2.845-1.04-7.654-1.511-18.855,1.684-31.7,2.246-9.03,5.656-16.27,8.687-21.541.156-.272.258-.564.304-.875,1.459-9.853,2.917-19.706,4.376-29.56.183-1.236,1.243-2.151,2.492-2.151h20.043c.711,0,1.381.299,1.859.825,15.748,17.296,48.084,40.255,106.623,35.042,13.93-1.24,25.703-3.991,35.693-7.743,25.881-9.719,39.658-26.234,46.975-41.154,6.87-14.009-5.148-29.865-20.493-27.035Z"/><path class="t" d="M872.973,1179.91l17.065,43.854c2.014,5.175.973,10.993-2.722,15.221l-44.217,50.583c-3.117,5.7-10.001,6.099-13.568.786l-38.165-47.119,67.099-70.168c5.361-5.676,13.861-1.666,14.507,6.843Z"/><path class="t" d="M836.057,1295.799c-3.127,0-5.999-1.623-7.931-4.5l-38.077-46.996c-.536-.663-.496-1.621.092-2.238l67.098-70.169c2.746-2.907,6.518-3.894,10.072-2.629,4.02,1.425,6.876,5.433,7.329,10.256l16.977,43.628c2.24,5.759,1.079,12.254-3.024,16.951l-44.102,50.448c-1.78,3.137-4.764,5.092-8.02,5.239-.136.007-.274.01-.413.01ZM793.622,1243.329l37.227,45.959c1.433,2.119,3.428,3.229,5.47,3.117,2.151-.098,4.08-1.428,5.294-3.648.06-.109.129-.21.212-.303l44.218-50.583c3.272-3.744,4.199-8.914,2.419-13.493l-17.067-43.854c-.059-.156-.099-.319-.112-.486-.271-3.6-2.276-6.575-5.102-7.577-2.293-.814-4.655-.165-6.485,1.77l-66.073,69.098Z"/><path class="t" d="M701.171,1162.777l98.835,80.809-58.277,57.284c-5.897,5.025-15.675,4.344-20.536-1.43l-54.507-64.744c-3.964-4.709-4.781-11.313-2.083-16.846l25.95-53.208c1.775-3.64,7.298-4.61,10.617-1.864Z"/><path class="t" d="M732.179,1305.937c-.483,0-.966-.02-1.453-.059-4.325-.359-8.269-2.308-10.83-5.349l-54.508-64.741c-4.391-5.221-5.297-12.553-2.306-18.681l25.951-53.208c1.029-2.111,3.067-3.635,5.598-4.182,2.733-.589,5.572.068,7.614,1.75l98.832,80.808c.374.304.599.755.619,1.234.023.481-.159.948-.503,1.285l-58.277,57.283c-2.938,2.51-6.763,3.859-10.737,3.859ZM696.63,1162.89c-.424,0-.854.046-1.284.139-1.506.326-2.697,1.185-3.269,2.356l-25.95,53.208c-2.402,4.925-1.674,10.818,1.856,15.013l54.508,64.741c1.982,2.356,5.086,3.87,8.513,4.154,3.597.3,7.101-.766,9.625-2.92l56.841-55.878-97.373-79.614s-.006-.005-.006-.006c-.94-.776-2.174-1.193-3.461-1.193Z"/><path class="x" d="M761.348,1101.511c57.15,39.7,116.54,42.699,142.3,16.1,5.07-5.235,13.832-16.774,15.353-39.656"/></g><path class="c" d="M814.437,1083.167c1.138,12.898,8.302,21.696,19.531,27.499,1.695.872,3.511,1.533,5.263,2.29,5.83,1.535,11.709,2.61,17.775,2.081,6.474-.57,12.645-2.125,18.253-5.539.198-.127.389-.256.587-.384l.028-.021c1.719-1.427,3.439-2.854,5.166-4.28,4.889-5.729,8.214-12.156,8.865-19.776.019-.251.063-.499.082-.751.802-8.049-2.073-12.261-10.095-13.133-11.218-1.221-22.498-1.893-33.767-2.58-6.167-.378-12.377-.623-18.549-.388-10.136.392-14.037,4.877-13.14,14.979ZM825.341,1093.965c16.025-6.692,39.235-1.116,45.29,10.638-12.989,8.567-39.298,2.476-45.29-10.638ZM821.933,1077.031c.112-.386.217-.772.322-1.167,1.459-.235,2.923-.674,4.382-.671,8.951.045,17.906-.048,26.838.364,8.77.397,17.519,1.29,26.266,2.077,2.508.226,3.157,2.056,1.429,3.949-.748.82-1.88,1.462-2.956,1.767-1.992.577-4.059,1.053-6.125,1.226-12.602,1.074-25.116.439-37.362-2.83-4.375-1.164-8.53-3.116-12.794-4.715Z"/><path class="m" d="M825.339,1093.967c5.991,13.11,32.306,19.201,45.288,10.635-6.055-11.755-29.265-17.331-45.288-10.635Z"/><path class="q" d="M821.937,1077.032c4.258,1.595,8.419,3.549,12.791,4.716,12.247,3.268,24.759,3.904,37.358,2.828,2.066-.176,4.131-.646,6.127-1.223,1.075-.311,2.206-.95,2.954-1.768,1.735-1.898,1.084-3.727-1.428-3.952-8.748-.782-17.496-1.676-26.265-2.077-8.932-.408-17.889-.318-26.835-.359-1.46-.007-2.922.436-4.384.671-.106.388-.212.777-.318,1.165Z"/><path class="c" d="M865.507,1050.926c-.86.82-1.87,1.48-3.46,2.71,1.45.55,2.07.92,2.72,1.01,8.16,1.04,16.16-8.79,13.17-16.44-.76-1.95-2.43-4.16-4.24-4.95-7.1-3.11-10.27-8.94-11.94-15.89-.87-3.59-1.19-7.31-1.85-10.95-.12-.69-.7-1.29-1.07-1.93-.52.54-1.35,1.01-1.5,1.64-2.45,10.18-.09,27.16,11.61,32.51,3.45,1.57,3.91,3.86,1.68,7.03-1.38,1.98-3.35,3.57-5.12,5.26Z"/><g class="ab"><circle class="w" cx="1061.826" cy="1278.037" r="16.303"/><circle class="w" cx="1149.74" cy="1192.988" r="29.428"/><circle class="w" cx="1158.309" cy="1006.118" r="46.485" transform="translate(-87.019 1902.283) rotate(-76.717)"/><circle class="k" cx="1097.152" cy="836.83" r="67.092"/><path class="k" d="M1097.152,908.921c-39.752,0-72.092-32.34-72.092-72.092s32.34-72.092,72.092-72.092,72.092,32.34,72.092,72.092-32.34,72.092-72.092,72.092ZM1097.152,774.738c-34.237,0-62.092,27.854-62.092,62.092s27.854,62.092,62.092,62.092,62.092-27.854,62.092-62.092-27.854-62.092-62.092-62.092Z"/></g><circle class="v" cx="1063.826" cy="1271.037" r="16.303"/><circle class="v" cx="1151.74" cy="1185.988" r="29.428"/><circle class="v" cx="1160.309" cy="999.118" r="46.485" transform="translate(-78.665 1898.837) rotate(-76.717)"/><circle class="j" cx="1099.152" cy="829.83" r="67.092"/><path class="f" d="M1099.152,901.921c-39.752,0-72.092-32.34-72.092-72.092s32.34-72.092,72.092-72.092,72.092,32.34,72.092,72.092-32.34,72.092-72.092,72.092ZM1099.152,767.738c-34.237,0-62.092,27.854-62.092,62.092s27.854,62.092,62.092,62.092,62.092-27.854,62.092-62.092-27.854-62.092-62.092-62.092Z"/></g></g></svg>